<?xml version="1.0" encoding="utf-8"?>
<!-- Generator: Adobe Illustrator 16.0.0, SVG Export Plug-In . SVG Version: 6.00 Build 0)  -->
<!DOCTYPE svg PUBLIC "-//W3C//DTD SVG 1.1 Tiny//EN" "http://www.w3.org/Graphics/SVG/1.1/DTD/svg11-tiny.dtd">
<svg version="1.1" baseProfile="tiny" id="Layer_1" xmlns="http://www.w3.org/2000/svg" xmlns:xlink="http://www.w3.org/1999/xlink"
	 x="0px" y="0px" width="198px" height="35px" viewBox="0 0 198 35" xml:space="preserve">
<g>
	<path fill="#DDDCDC" d="M0,0.021c5.564,0.007,11.131-0.076,16.691,0.05c4.288,0.099,7.646,3.011,8.37,6.987
		c0.818,4.502-1.518,8.347-5.121,9.379c-0.092,0.026-0.167,0.11-0.29,0.197c3.435,0.982,5.486,3.257,6.063,6.663
		c0.952,5.621-2.148,10.239-8.005,10.892c-1.299,0.147-2.618,0.142-3.927,0.148C9.188,34.363,4.594,34.359,0,34.37V0.021z
		 M7.398,27.811c0.094,0.034,0.189,0.096,0.285,0.096c2.306,0.003,4.614,0.085,6.917-0.024c2.38-0.113,3.795-1.576,3.858-3.731
		c0.063-2.167-1.244-3.73-3.576-4.011c-1.473-0.174-2.978-0.096-4.469-0.116c-0.988-0.014-1.978-0.002-3.015-0.002V27.811z
		 M7.347,13.631c2.15,0,4.19,0.003,6.231-0.003c0.393-0.001,0.794,0.002,1.177-0.075c1.439-0.289,2.524-1.029,2.902-2.53
		c0.602-2.396-0.925-4.463-3.401-4.586c-1.152-0.056-2.308-0.015-3.463-0.017c-1.12,0-2.241,0-3.394,0
		c-0.023,0.248-0.05,0.399-0.05,0.55C7.347,9.146,7.347,11.32,7.347,13.631z M132.672,35c-0.872-0.162-1.75-0.285-2.61-0.492
		c-6.727-1.613-10.153-7.403-9.567-13.8c0.494-5.358,3.194-9.274,8.336-11.087c7.183-2.532,15.511,0.886,16.74,10.443
		c0.161,1.26,0.152,2.545,0.229,3.933h-18.542c0.429,2.355,1.615,4.006,3.686,4.884c3.363,1.425,6.515,0.714,9.483-1.196
		c0.178-0.115,0.34-0.25,0.511-0.369c0.016-0.012,0.05-0.003,0.169-0.003c0.909,1.34,1.846,2.721,2.9,4.272
		c-0.955,0.598-1.839,1.244-2.803,1.729c-1.772,0.892-3.679,1.364-5.66,1.528c-0.226,0.021-0.446,0.104-0.668,0.159H132.672z
		 M139.4,19.476c0.13-3.086-2.81-5.441-6.53-5.294c-3.097,0.122-5.85,2.744-5.517,5.294H139.4z M159.3,35
		c-1.071-0.217-2.158-0.367-3.208-0.658c-5.014-1.384-8.473-5.623-8.928-10.804c-0.429-4.888,0.988-9.032,4.912-12.115
		c5.945-4.672,17.63-3.613,19.952,7.444c0.166,0.792,0.265,1.605,0.314,2.413c0.053,0.86,0.012,1.723,0.012,2.716h-18.426
		c0.162,1.381,0.697,2.493,1.589,3.411c2.037,2.104,4.58,2.5,7.328,2.017c1.751-0.304,3.367-0.971,4.821-2.217l2.967,4.348
		c-0.772,0.518-1.471,1.062-2.24,1.483c-1.909,1.044-3.975,1.595-6.141,1.798c-0.253,0.026-0.499,0.108-0.747,0.164
		C160.77,35,160.037,35,159.3,35L159.3,35z M153.975,19.471h12.061c0.155-2.99-2.716-5.366-6.32-5.296
		C156.513,14.238,153.744,16.769,153.975,19.471z M37.344,35c-0.789-0.162-1.582-0.301-2.365-0.487
		c-4.844-1.155-7.707-4.782-7.711-9.767c-0.003-4.778,0-9.557,0-14.335V9.554h6.549v0.913c0,4.515,0.013,9.032-0.007,13.548
		c-0.009,2.049,0.618,3.782,2.56,4.674c2.103,0.965,4.257,0.931,6.204-0.457c1.425-1.013,1.829-2.568,1.832-4.236
		c0.007-4.491,0.003-8.98,0.003-13.47V9.54h6.477v0.885c0,4.726,0.001,9.453-0.002,14.178c-0.001,5.703-3.552,9.624-9.24,10.22
		c-0.28,0.029-0.556,0.116-0.833,0.178C39.655,35,38.5,35,37.344,35z M99.178,34.291V0.043H123v3.322
		c0,0.735-0.048,1.474,0.014,2.205c0.063,0.726-0.228,0.866-0.897,0.863c-4.701-0.027-9.399-0.014-14.101-0.014h-1.485v7.211h0.885
		c3.546,0,7.089,0.021,10.635-0.017c0.716-0.007,0.883,0.221,0.868,0.897c-0.046,1.805-0.016,3.61-0.016,5.506h-12.428v14.273
		H99.178L99.178,34.291z M174.013,34.277v-0.902c0-7.663,0-15.328,0-22.991c0-1.006,0.003-1.015,1.042-1.005
		c3.592,0.033,7.202-0.121,10.777,0.156c5.096,0.394,9.083,2.688,10.97,7.719c1.919,5.112,0.456,10.943-3.44,14.137
		c-2.297,1.885-5,2.81-7.913,2.914c-3.695,0.135-7.398,0.044-11.098,0.046C174.276,34.351,174.201,34.318,174.013,34.277
		L174.013,34.277z M180.259,29.021c1.256,0,2.432,0,3.604,0c4.23-0.002,6.894-2.382,7.368-6.592c0.34-3.021-1.294-6.026-3.896-7.093
		c-2.292-0.939-4.688-0.44-7.075-0.573C180.259,19.56,180.259,24.225,180.259,29.021L180.259,29.021z M64.087,15.148H52.992v-5.62
		h20.059c0,1.061-0.051,2.126,0.017,3.184c0.063,0.976-0.236,1.729-0.851,2.495c-3.336,4.151-6.619,8.345-9.919,12.525
		c-0.178,0.222-0.346,0.455-0.622,0.82h11.508v5.725H52.931c0-1.562-0.023-3.127,0.021-4.689c0.009-0.269,0.277-0.549,0.467-0.79
		c3.386-4.312,6.78-8.62,10.169-12.93C63.729,15.688,63.85,15.493,64.087,15.148z M74.977,15.154c0-1.773-0.002-3.399,0.001-5.024
		c0-0.18,0.031-0.359,0.051-0.591h19.997c0,1.511,0.015,2.998-0.016,4.482c-0.007,0.225-0.229,0.461-0.386,0.662
		c-3.442,4.369-6.892,8.736-10.337,13.104C84.117,28,83.966,28.231,83.7,28.6h1.005c3.254,0,6.509,0.014,9.763-0.012
		c0.607-0.005,0.833,0.144,0.813,0.788c-0.042,1.624-0.014,3.245-0.014,4.915H74.996c0-1.617-0.012-3.209,0.017-4.801
		c0.003-0.2,0.212-0.408,0.355-0.589c3.307-4.209,6.617-8.418,9.926-12.625c0.253-0.322,0.502-0.649,0.867-1.122H74.977
		L74.977,15.154z"/>
</g>
</svg>
