<?xml version="1.0" encoding="utf-8"?>
<!-- Generator: Adobe Illustrator 16.0.0, SVG Export Plug-In . SVG Version: 6.00 Build 0)  -->
<!DOCTYPE svg PUBLIC "-//W3C//DTD SVG 1.1 Tiny//EN" "http://www.w3.org/Graphics/SVG/1.1/DTD/svg11-tiny.dtd">
<svg version="1.1" baseProfile="tiny" id="Layer_1" xmlns="http://www.w3.org/2000/svg" xmlns:xlink="http://www.w3.org/1999/xlink"
	 x="0px" y="0px" width="76px" height="35px" viewBox="0 0 76 35" xml:space="preserve">
<g>
	<path fill-rule="evenodd" fill="#DDDCDC" d="M24.005,0.018c0-0.016-6.523,0-6.523,0C7.827,0.018,0,7.845,0,17.5
		s7.827,17.482,17.482,17.482l12.264-0.01c3.081,0,5.579-2.479,5.579-5.559l0.006-10.663l8.477,13.37
		c1.146,1.735,3.114,2.88,5.35,2.88c3.539,0,6.407-2.869,6.407-6.407l-0.001-9.843l8.477,13.37c1.146,1.735,3.114,2.88,5.35,2.88
		c3.539,0,6.408-2.869,6.408-6.407L75.796,0.002h-4.362v28.591c0,1.128-0.915,2.043-2.044,2.043c-0.705,0-1.327-0.357-1.695-0.901
		L52.608,5.969c-0.14-0.202-0.373-0.335-0.637-0.335c-0.427,0-0.773,0.346-0.773,0.773l0.004,22.186
		c0,1.128-0.915,2.043-2.043,2.043c-0.706,0-1.328-0.357-1.695-0.901L32.376,5.969c-0.14-0.202-0.373-0.335-0.637-0.335
		c-0.427,0-0.773,0.346-0.773,0.773l-0.003,23.006c0,0.671-0.544,1.215-1.215,1.215l-12.264-0.009
		c-7.245,0-13.119-5.874-13.119-13.119S10.237,4.381,17.482,4.381l6.523-0.005V0.018L24.005,0.018z"/>
	<path fill-rule="evenodd" fill="#DDDCDC" d="M24.708,25.015c0.343,0,0.622-0.278,0.622-0.622l0.001-17.986
		C25.331,2.869,28.2,0,31.739,0c2.243,0,4.217,1.153,5.362,2.898l8.448,13.251l0.015-9.743C45.563,2.869,48.432,0,51.971,0
		c2.243,0,4.217,1.153,5.362,2.898L65.78,16.15V0.002h4.392l-0.008,28.591c0,0.427-0.346,0.773-0.773,0.773
		c-0.253,0-0.478-0.121-0.619-0.309L53.666,5.265c-0.367-0.543-0.989-0.901-1.694-0.901c-1.129,0-2.044,0.915-2.044,2.043
		l0.005,22.186c0,0.427-0.346,0.773-0.773,0.773c-0.253,0-0.478-0.121-0.619-0.309L33.434,5.265
		c-0.367-0.543-0.989-0.901-1.695-0.901c-1.129,0-2.044,0.915-2.044,2.043l0.009,22.361c0,0.343-0.278,0.621-0.622,0.621
		l-11.6-0.002c-6.543,0-11.848-5.344-11.848-11.887S10.939,5.613,17.482,5.613c0,0,6.523-0.025,6.523,0s0,4.408,0,4.408
		l-6.523-0.005c-4.134,0-7.484,3.351-7.484,7.484s3.351,7.523,7.484,7.523L24.708,25.015L24.708,25.015z"/>
</g>
</svg>
