<?xml version="1.0" encoding="utf-8"?>
<!-- Generator: Adobe Illustrator 16.0.0, SVG Export Plug-In . SVG Version: 6.00 Build 0)  -->
<!DOCTYPE svg PUBLIC "-//W3C//DTD SVG 1.1 Tiny//EN" "http://www.w3.org/Graphics/SVG/1.1/DTD/svg11-tiny.dtd">
<svg version="1.1" baseProfile="tiny" id="Layer_1" xmlns="http://www.w3.org/2000/svg" xmlns:xlink="http://www.w3.org/1999/xlink"
	 x="0px" y="0px" width="600px" height="75px" viewBox="0 0 600 75" xml:space="preserve">
<g>
	<rect fill="#FFFFFF" width="50" height="50"/>
	<rect x="50" fill="#8E8E8E" width="50" height="50"/>
	<rect x="100" fill="#3F3C3C" width="50" height="50"/>
	<rect x="150" fill="#121211" width="50" height="50"/>
	<text transform="matrix(1 0 0 1 157.875 70.5215)" font-family="'MyriadPro-Regular'" font-size="10">#0f0f0f</text>
	<text transform="matrix(1 0 0 1 110.4795 70.5215)" font-family="'MyriadPro-Regular'" font-size="10">#3f3c3c</text>
	<text transform="matrix(1 0 0 1 58.917 70.5215)" font-family="'MyriadPro-Regular'" font-size="10">#8e8e8e</text>
	<text transform="matrix(1 0 0 1 8.917 70.5215)" font-family="'MyriadPro-Regular'" font-size="10">w</text>
	<text transform="matrix(1 0 0 1 16.2769 70.5215)" font-family="'MyriadPro-Regular'" font-size="10">h</text>
	<text transform="matrix(1 0 0 1 21.8267 70.5215)" font-family="'MyriadPro-Regular'" font-size="10">i</text>
	<text transform="matrix(1 0 0 1 24.167 70.5215)" font-family="'MyriadPro-Regular'" font-size="10">t</text>
	<text transform="matrix(1 0 0 1 27.4165 70.5215)" font-family="'MyriadPro-Regular'" font-size="10">e</text>
	<rect x="200" fill="#E7C414" width="50" height="50"/>
	<text transform="matrix(1 0 0 1 207.875 70.5215)" font-family="'MyriadPro-Regular'" font-size="10">#e7c414</text>
	<rect x="250" fill="#F0DD7D" width="50" height="50"/>
	<text transform="matrix(1 0 0 1 253.188 70.5215)" font-family="'MyriadPro-Regular'" font-size="10">#f4dd7d</text>
	<rect x="250" fill="#F0DD7D" width="50" height="50"/>
	<rect x="300" fill="#C4A016" width="50" height="50"/>
	<text transform="matrix(1 0 0 1 253.188 70.5215)" font-family="'MyriadPro-Regular'" font-size="10">#f4dd7d</text>
	<text transform="matrix(1 0 0 1 307.0015 69.4385)" font-family="'MyriadPro-Regular'" font-size="10">#c4a006</text>
	<text transform="matrix(1 0 0 1 352.314 69.4385)" font-family="'MyriadPro-Regular'" font-size="10">#775e0e</text>
	<rect x="350" fill="#775E10" width="50" height="50"/>
	<rect x="400" fill="#DDDDDD" width="50" height="50"/>
	<text transform="matrix(1 0 0 1 407.522 69.4385)" font-family="'MyriadPro-Regular'" font-size="10">#</text>
	<text transform="matrix(1 0 0 1 412.4917 69.4385)" font-family="'MyriadPro-Regular'" font-size="10">d</text>
	<text transform="matrix(1 0 0 1 418.1318 69.4385)" font-family="'MyriadPro-Regular'" font-size="10">d</text>
	<text transform="matrix(1 0 0 1 423.772 69.4385)" font-family="'MyriadPro-Regular'" font-size="10">d</text>
	<text transform="matrix(1 0 0 1 429.4116 69.4385)" font-family="'MyriadPro-Regular'" font-size="10">c</text>
	<text transform="matrix(1 0 0 1 433.832 69.4385)" font-family="'MyriadPro-Regular'" font-size="10">d</text>
	<text transform="matrix(1 0 0 1 439.4717 69.4385)" font-family="'MyriadPro-Regular'" font-size="10">c</text>
</g>
</svg>
