<?xml version="1.0" encoding="utf-8"?>
<!-- Generator: Adobe Illustrator 16.0.0, SVG Export Plug-In . SVG Version: 6.00 Build 0)  -->
<!DOCTYPE svg PUBLIC "-//W3C//DTD SVG 1.1 Tiny//EN" "http://www.w3.org/Graphics/SVG/1.1/DTD/svg11-tiny.dtd">
<svg version="1.1" baseProfile="tiny" id="Layer_1" xmlns="http://www.w3.org/2000/svg" xmlns:xlink="http://www.w3.org/1999/xlink"
	 x="0px" y="0px" width="209px" height="35px" viewBox="0 0 209 35" xml:space="preserve">
<g>
	<polygon fill-rule="evenodd" fill="#DDDCDC" points="138.961,0.786 138.961,34.043 149.924,34.043 149.924,29.473 144.378,29.473 
		144.378,0.786 	"/>
	<polygon fill-rule="evenodd" fill="#DDDCDC" points="158.634,0.873 158.634,5.443 163.877,5.443 163.877,34.043 169.25,34.043 
		169.25,5.443 174.45,5.443 174.45,0.873 	"/>
	<path fill-rule="evenodd" fill="#DDDCDC" d="M11.699,12.626h5.46c0.26-2.046,0.563-12.363-8.536-12.45
		C0.953,0.089,0,9.579,0,17.458c0,7.749,0,17.238,8.666,17.369c8.839,0.174,8.623-9.838,8.493-13.625l-5.417,0.043
		c0.043,3.657,0,8.707-3.077,8.837c-3.423,0.174-3.013-7.506-3.033-12.537C5.613,12.465,5.546,4.877,8.666,4.877
		C11.179,4.877,11.959,7.098,11.699,12.626z"/>
	<rect x="151.484" y="0.873" fill-rule="evenodd" fill="#DDDCDC" width="5.417" height="33.171"/>
	<polygon fill="#DDDCDC" points="176.876,0.829 170.81,34.043 175.793,34.043 177.613,24.249 184.199,24.249 183.333,20.026 
		178.783,20.026 180.559,7.664 182.466,20.113 183.289,21.115 183.376,24.031 185.326,33.957 190.309,33.957 184.286,0.829 	"/>
	<polygon fill-rule="evenodd" fill="#DDDCDC" points="191.392,0.786 191.392,34.043 196.289,34.043 196.289,14.759 201.965,34.043 
		208.508,34.043 208.508,0.873 203.568,0.873 203.568,19.548 198.108,0.786 	"/>
	<polygon fill-rule="evenodd" fill="#DDDCDC" points="60.642,11.863 60.642,34.206 55.752,34.206 55.752,1.17 62.893,1.17 
		66.831,20.079 70.812,1.17 77.736,1.17 77.736,34.076 72.889,34.076 72.889,11.863 68.562,34.076 65.013,34.076 	"/>
	<path fill-rule="evenodd" fill="#DDDCDC" d="M49.104,12.038h5.236c0.39-5.086-1.082-11.736-7.919-11.824
		c-4.587-0.043-8.136,3.739-7.79,8.346c-0.259,4.26,2.424,7.085,5.41,9.998c2.64,2.782,4.847,5.347,5.106,6.216
		c0.519,1.564,0.736,5.694-2.726,5.52c-2.64-0.13-2.424-4.912-2.424-7.693h-5.323c-0.26,3.564,0.39,12.127,7.66,12.388
		c5.496,0.217,7.79-2.695,8.092-8.781c0.216-4.216-3.765-8.259-5.972-10.519c-2.553-2.782-4.198-4.217-4.328-6.738
		c-0.086-1.695,0-3.956,2.294-3.956c1.86,0,2.726,1.826,2.683,4.434V12.038z"/>
	<path fill="#DDDCDC" d="M18.892,16.979c0.087-7.27,0.824-17.151,9.36-16.977c8.233,0.13,8.581,9.225,8.883,16.542
		c0.325,7.884-0.997,18.283-8.667,18.283c-9.446,0.044-9.879-13.059-9.446-20.416h5.546c-0.061,1.169-0.059,1.833,0,3.003
		c0.254,5.092-0.173,12.406,3.553,12.581c3.857,0.218,3.616-7.587,3.597-12.755C31.7,12.193,32.195,4.964,28.035,4.834
		c-3.64-0.087-3.423,7.139-3.466,10.143C22.634,16.306,18.762,24.771,18.892,16.979z"/>
	<path fill="#DDDCDC" d="M80.422,16.979c0.086-7.27,0.823-17.151,9.359-16.977c8.232,0.13,8.581,9.225,8.882,16.542
		c0.325,7.884-0.997,18.283-8.666,18.283c-9.446,0.044-9.88-13.059-9.446-20.416h5.546c-0.061,1.169-0.058,1.833,0,3.003
		c0.255,5.092-0.173,12.406,3.553,12.581c3.856,0.218,3.615-7.587,3.597-12.755c-0.019-5.047,0.477-12.276-3.684-12.406
		c-3.64-0.087-3.423,7.139-3.466,10.143C84.166,16.31,80.292,24.771,80.422,16.979z"/>
	<path fill="#DDDCDC" d="M119.203,16.979c0.087-7.27,0.823-17.151,9.359-16.977c8.232,0.13,8.614,9.224,8.883,16.542
		c0.292,7.952-1.386,18.283-9.056,18.283c-9.446,0.044-9.49-13.059-9.056-20.416h5.546c-0.06,1.169-0.058,1.833,0,3.003
		c0.254,5.092-0.087,12.842,3.553,12.581c3.856-0.261,3.615-7.587,3.596-12.755c-0.019-5.047,0.477-12.276-3.683-12.406
		c-3.64-0.087-3.423,7.139-3.466,10.143C122.938,16.298,119.073,24.771,119.203,16.979z"/>
	<path fill="#DDDCDC" d="M105.641,5.531h0.867c3.9,0.305,5.716,3.075,5.633,6.399c-0.084,3.364-1.256,6.312-6.066,6.138h-4.55v4.658
		h5.85c6.067,0,10.038-5.062,10.096-10.839c0.059-5.749-4.116-10.796-9.75-11.057h-7.712v33.214h5.633V5.531z"/>
</g>
</svg>
