<?xml version="1.0" encoding="utf-8"?>
<!-- Generator: Adobe Illustrator 16.0.0, SVG Export Plug-In . SVG Version: 6.00 Build 0)  -->
<!DOCTYPE svg PUBLIC "-//W3C//DTD SVG 1.1 Tiny//EN" "http://www.w3.org/Graphics/SVG/1.1/DTD/svg11-tiny.dtd">
<svg version="1.1" baseProfile="tiny" id="Layer_1" xmlns="http://www.w3.org/2000/svg" xmlns:xlink="http://www.w3.org/1999/xlink"
	 x="0px" y="0px" width="253px" height="35px" viewBox="0 0 253 35" xml:space="preserve">
<g>
	<polygon fill="#8E8E8E" points="241.99,3.162 252.863,3.162 252.863,31.91 237.072,31.91 	"/>
	<polygon fill="#8E8E8E" points="0,3.162 15.797,3.162 10.88,31.91 0,31.91 	"/>
</g>
<polygon fill="#DDDCDC" points="20.529,3.162 29.751,3.162 28.022,13.274 36.036,13.274 37.766,3.162 46.989,3.162 42.071,31.91 
	32.849,31.91 34.677,21.225 26.662,21.225 24.835,31.91 15.612,31.91 "/>
<path fill="#DDDCDC" d="M52.177,3.162h9.223l-2.756,16.555c-0.498,3.351,0.25,5.322,2.956,5.322c2.61,0,4.154-1.783,4.757-5.301
	l2.827-16.539h9.223L75.241,21.71C73.766,30.339,68.555,32.5,61.27,32.5c-11.949,0-12.893-7.118-12.008-12.213L52.177,3.162
	L52.177,3.162z"/>
<polygon fill="#DDDCDC" points="83.625,3.162 103.851,3.162 102.492,11.111 91.486,11.111 90.647,16.016 98.634,16.016 
	97.378,23.361 89.392,23.361 87.93,31.91 78.707,31.91 "/>
<polygon fill="#DDDCDC" points="107.794,3.162 128.02,3.162 126.661,11.111 115.657,11.111 114.818,16.016 122.804,16.016 
	121.548,23.361 113.562,23.361 112.1,31.91 102.876,31.91 "/>
<polygon fill="#DDDCDC" points="229.89,11.111 226.331,31.91 217.108,31.91 220.666,11.111 213.197,11.111 214.557,3.162 
	238.437,3.162 237.075,11.111 "/>
<path fill="#DDDCDC" d="M131.963,3.162c4.285,0,8.542-0.014,12.825-0.014c4.185,0,7.336,1.846,8.825,4.648
	c1.753,3.296,0.936,9.386-1.224,12.359c-1.875,2.581-4.975,4.278-8.637,4.278H137.7l-1.279,7.476h-9.376L131.963,3.162
	L131.963,3.162z M140.04,10.76l-1.107,6.477h2.762c3.118,0,3.572-2.005,3.809-3.031c0.306-1.781-0.804-3.447-3.085-3.447
	L140.04,10.76L140.04,10.76z"/>
<path fill="#DDDCDC" d="M171.896,10.196c3.25,0,3.897,3.199,3.251,7.333c-0.679,4.333-2.32,7.395-5.4,7.395
	c-3.299,0-4.252-3.254-3.604-7.39C166.888,13.107,168.571,10.196,171.896,10.196L171.896,10.196z M172.488,2.572
	c9.815,0,13.638,6.884,12.64,15.149c-0.995,8.264-5.749,14.779-16.249,14.779c-9.521,0-13.653-6.797-12.657-15.064
	C157.22,9.175,161.694,2.572,172.488,2.572L172.488,2.572z"/>
<path fill="#DDDCDC" d="M192.946,4.477c2.371-1.395,5.362-2.006,8.103-1.976c4.613,0.051,9.253,1.793,10.104,6.364l-8.239,2.187
	c-0.459-1.097-1.625-1.761-2.795-1.771c-1.887-0.019-2.956,1.649-1.885,2.803c1.063,1,3.875,1.696,5.146,2.191
	c1.34,0.523,2.539,1.187,3.584,2.191c1.743,1.671,2.508,3.99,2.438,6.312c-0.22,7.083-6.438,9.707-12.711,9.704
	c-5.466-0.005-10.823-2.213-11.317-6.894l8.041-2.159c0.991,1.414,1.883,2.235,3.755,2.235c1.057,0,1.927-0.477,2.203-1.292
	c0.291-0.855-0.074-1.964-1.772-2.522c-1.535-0.501-3.742-1.035-5.531-2.222c-2.713-1.829-3.779-5.188-3.409-8.312
	C188.993,8.521,190.472,5.933,192.946,4.477L192.946,4.477z"/>
</svg>
