<?xml version="1.0" encoding="utf-8"?>
<!-- Generator: Adobe Illustrator 16.0.0, SVG Export Plug-In . SVG Version: 6.00 Build 0)  -->
<!DOCTYPE svg PUBLIC "-//W3C//DTD SVG 1.1//EN" "http://www.w3.org/Graphics/SVG/1.1/DTD/svg11.dtd">
<svg version="1.1" id="Layer_1" xmlns="http://www.w3.org/2000/svg" xmlns:xlink="http://www.w3.org/1999/xlink" x="0px" y="0px"
	 width="80px" height="60px" viewBox="0 0 80 60" enable-background="new 0 0 80 60" xml:space="preserve">
<path fill="#FFFFFF" d="M82.166-2.239c-0.917-0.455-1.883-0.683-2.834-0.692c-1.846-0.02-3.629,0.786-4.832,2.354
	c-0.779,0.755-9.303,8.37-33.853,8.317C15.995,7.281,7.633-0.509,6.867-1.28c-1.17-1.595-2.936-2.436-4.782-2.454
	c-0.95-0.01-1.922,0.199-2.847,0.634C-3.508-1.807-4.83,1.408-4.044,4.343c0.079,0.294,0.892,3.178,3.103,6.688
	c-0.199,0.674-0.295,1.383-0.255,2.113c0.417,7.614,4.302,14.41,4.745,15.159c0.261,0.442,0.576,0.843,0.927,1.202
	c-0.348,1.401-0.559,2.855-0.575,4.361c-0.109,10.433,8.293,19.011,18.728,19.121c2.334,0.022,4.568-0.398,6.643-1.155
	c1.749,4.216,4.784,8.869,8.189,10.546l-0.021,0.051c0.563,0.262,1.181,0.443,1.807,0.535c0.243,0.033,0.485,0.058,0.729,0.06
	c0.016-0.004,0.069,0,0.084,0c0.244,0.002,0.489-0.014,0.734-0.049c0.623-0.073,1.245-0.242,1.815-0.491l-0.024-0.049
	c3.442-1.603,6.571-6.198,8.411-10.374c2.057,0.798,4.288,1.266,6.62,1.293c10.434,0.105,19.012-8.296,19.121-18.729
	c0.017-1.505-0.164-2.964-0.483-4.373c0.355-0.352,0.683-0.744,0.949-1.181c0.459-0.741,4.485-7.455,5.058-15.057
	c0.06-0.73-0.027-1.44-0.213-2.115c2.285-3.465,3.159-6.333,3.245-6.626C86.138,2.354,84.885-0.887,82.166-2.239z"/>
<g>
	<g>
		<path fill="#E6C417" d="M22.957,21.416c-6.985-0.072-12.707,5.531-12.78,12.516c-0.072,6.985,5.531,12.705,12.516,12.777
			c6.984,0.074,12.705-5.531,12.778-12.514C35.544,27.21,29.94,21.489,22.957,21.416z M22.724,43.732
			c-5.342-0.055-9.627-4.43-9.571-9.77c0.056-5.343,4.43-9.625,9.77-9.57c5.342,0.056,9.626,4.43,9.572,9.771
			C32.438,39.505,28.064,43.787,22.724,43.732z"/>
		<path fill="#E6C417" d="M5.071,12.8c0,0,4.916,5.961,11.458,6.833c0,0-5.352,1.659-7.573,5.482
			C8.956,25.115,5.417,19.107,5.071,12.8z"/>
		<path fill="#E6C417" d="M45.164,34.294c-0.073,6.985,5.531,12.708,12.515,12.78c6.983,0.073,12.703-5.533,12.777-12.518
			c0.072-6.982-5.53-12.703-12.513-12.776C50.956,21.708,45.236,27.31,45.164,34.294z M48.138,34.327
			c0.056-5.342,4.434-9.626,9.775-9.57c5.337,0.055,9.624,4.43,9.566,9.772c-0.052,5.343-4.429,9.624-9.771,9.569
			C52.366,44.043,48.083,39.666,48.138,34.327z"/>
		<path fill="#E6C417" d="M40.528,14.019c-29.9-0.558-38.508-11.3-38.508-11.3s3.831,14.312,20.966,15.668
			c17.633,1.394,16.073,20.31,16.073,20.31s-5.011,1.163-5.07,7.069c-0.041,3.796,5.452,11.249,6.094,10.967
			c0.635,0.297,6.284-7.039,6.324-10.841c0.061-5.906-4.926-7.167-4.926-7.167s-1.164-18.947,16.492-19.974
			c17.159-1,21.289-15.228,21.289-15.228S70.433,14.083,40.528,14.019z"/>
		<path fill="#E6C417" d="M76.001,13.539c0,0-5.039,5.857-11.598,6.593c0,0,5.316,1.77,7.456,5.639
			C71.859,25.771,75.521,19.836,76.001,13.539z"/>
		<g>
			<path fill="#E6C417" d="M22.651,31.222c0.005-0.595,0.184-1.145,0.482-1.611c-0.087-0.006-0.176-0.015-0.264-0.016
				c-2.467-0.025-4.488,1.953-4.513,4.421c-0.026,2.467,1.953,4.489,4.421,4.514s4.487-1.954,4.514-4.419
				c0.001-0.091-0.007-0.177-0.011-0.264c-0.472,0.288-1.026,0.456-1.619,0.448C23.981,34.277,22.634,32.901,22.651,31.222z"/>
			<path fill="#E6C417" d="M57.84,31.588c0.004-0.59,0.183-1.137,0.479-1.601c-0.152-0.016-0.306-0.027-0.461-0.028
				c-2.467-0.025-4.494,1.955-4.514,4.422c-0.026,2.468,1.954,4.488,4.422,4.514c2.466,0.024,4.488-1.952,4.516-4.42
				c-0.002-0.05-0.008-0.099-0.008-0.149c-0.428,0.219-0.909,0.343-1.422,0.337C59.169,34.646,57.822,33.268,57.84,31.588z"/>
		</g>
	</g>
</g>
</svg>
