<?xml version="1.0" encoding="utf-8"?>
<!-- Generator: Adobe Illustrator 16.0.0, SVG Export Plug-In . SVG Version: 6.00 Build 0)  -->
<!DOCTYPE svg PUBLIC "-//W3C//DTD SVG 1.1 Tiny//EN" "http://www.w3.org/Graphics/SVG/1.1/DTD/svg11-tiny.dtd">
<svg version="1.1" baseProfile="tiny" id="Layer_1" xmlns="http://www.w3.org/2000/svg" xmlns:xlink="http://www.w3.org/1999/xlink"
	 x="0px" y="0px" width="105.12px" height="35px" viewBox="0 0 105.12 35" xml:space="preserve">
<g>
	<rect fill="#F05A30" width="34.999" height="35"/>
	<rect x="34.999" fill="#000017" width="35.001" height="35"/>
	<rect x="70" fill="#0073BA" width="35" height="35"/>
	<path fill="#FFFFFF" d="M21.237,26.429V16.101c0-1.524-0.292-2.637-0.88-3.338c-0.588-0.701-1.544-1.051-2.874-1.051
		c-0.616,0-1.272,0.172-1.972,0.517c-0.698,0.345-1.243,0.774-1.633,1.285v12.914h-4.18V8.487h3.014l0.77,1.672
		c1.138-1.315,2.819-1.975,5.041-1.975c2.13,0,3.813,0.638,5.047,1.914c1.233,1.278,1.851,3.058,1.851,5.343v10.987H21.237z"/>
	<path fill="#FFFFFF" d="M51.236,11.763c1.927,0,3.307,0.433,4.144,1.294c0.833,0.863,1.25,2.353,1.25,4.467
		c0,1.982-0.418,3.433-1.26,4.352c-0.839,0.918-2.222,1.377-4.148,1.377c-1.013,0-1.898-0.306-2.654-0.917v-9.403
		C49.346,12.153,50.235,11.763,51.236,11.763 M52.17,26.782c2.735,0,4.892-0.792,6.473-2.377c1.583-1.584,2.37-3.844,2.37-6.779
		c0-6.294-2.858-9.441-8.576-9.441c-1.53,0-2.82,0.502-3.871,1.508V8.486h-4.182v24.947h4.182v-7.439
		C49.649,26.518,50.851,26.782,52.17,26.782"/>
	<path fill="#FFFFFF" d="M92.129,12.417c-0.745-0.469-1.559-0.706-2.446-0.706c-0.967,0-1.826,0.44-2.573,1.318
		c-0.752,0.879-1.126,1.952-1.126,3.22v10.179H81.8V8.487h4.184V10.2c1.166-1.343,2.716-2.016,4.649-2.016
		c1.421,0,2.511,0.218,3.264,0.652L92.129,12.417z"/>
	<rect fill="#DDDCDC" width="34.999" height="35"/>
	<rect x="34.999" fill="#8E8E8E" width="35.001" height="35"/>
	<rect x="70" fill="#DDDCDC" width="35" height="35"/>
	<path fill="#FFFFFF" d="M21.237,26.429V16.101c0-1.524-0.292-2.637-0.88-3.338c-0.588-0.701-1.544-1.051-2.874-1.051
		c-0.616,0-1.272,0.172-1.972,0.517c-0.698,0.345-1.243,0.774-1.633,1.285v12.914h-4.18V8.487h3.014l0.77,1.672
		c1.138-1.315,2.819-1.975,5.041-1.975c2.13,0,3.813,0.638,5.047,1.914c1.233,1.278,1.851,3.058,1.851,5.343v10.987H21.237z"/>
	<path fill="#FFFFFF" d="M51.236,11.763c1.927,0,3.307,0.433,4.144,1.294c0.833,0.863,1.25,2.353,1.25,4.467
		c0,1.982-0.418,3.433-1.26,4.352c-0.839,0.918-2.222,1.377-4.148,1.377c-1.013,0-1.898-0.306-2.654-0.917v-9.403
		C49.346,12.153,50.235,11.763,51.236,11.763 M52.17,26.782c2.735,0,4.892-0.792,6.473-2.377c1.583-1.584,2.37-3.844,2.37-6.779
		c0-6.294-2.858-9.441-8.576-9.441c-1.53,0-2.82,0.502-3.871,1.508V8.486h-4.182v24.947h4.182v-7.439
		C49.649,26.518,50.851,26.782,52.17,26.782"/>
	<path fill="#FFFFFF" d="M92.129,12.417c-0.745-0.469-1.559-0.706-2.446-0.706c-0.967,0-1.826,0.44-2.573,1.318
		c-0.752,0.879-1.126,1.952-1.126,3.22v10.179H81.8V8.487h4.184V10.2c1.166-1.343,2.716-2.016,4.649-2.016
		c1.421,0,2.511,0.218,3.264,0.652L92.129,12.417z"/>
</g>
</svg>
