<?xml version="1.0" encoding="utf-8"?>
<!-- Generator: Adobe Illustrator 16.0.0, SVG Export Plug-In . SVG Version: 6.00 Build 0)  -->
<!DOCTYPE svg PUBLIC "-//W3C//DTD SVG 1.1//EN" "http://www.w3.org/Graphics/SVG/1.1/DTD/svg11.dtd">
<svg version="1.1" id="Layer_1" xmlns="http://www.w3.org/2000/svg" xmlns:xlink="http://www.w3.org/1999/xlink" x="0px" y="0px"
	 width="2000px" height="1000px" viewBox="0 0 2000 1000" enable-background="new 0 0 2000 1000" xml:space="preserve">
<rect fill="#E6C417" width="2000" height="1000"/>
<g>
	<g>
		<path fill="#C4A016" d="M1356.54,697.365c-92.422,73.634-107.675,208.252-34.055,300.688
			c73.646,92.416,208.238,107.638,300.666,34.009c92.438-73.602,107.645-208.239,34.046-300.641
			C1583.567,638.987,1448.949,623.761,1356.54,697.365z M1591.771,992.665c-70.686,56.317-173.624,44.666-229.914-25.999
			c-56.313-70.71-44.643-173.603,26.019-229.889c70.693-56.314,173.604-44.667,229.926,25.998
			C1674.094,833.473,1662.431,936.367,1591.771,992.665z"/>
		<path fill="#C4A016" d="M1029.846,775.284c0,0,128.157,25.73,223.306-32.691c0,0-52.504,78.932-40.825,152.8
			C1212.326,895.393,1101.736,854.348,1029.846,775.284z"/>
		<path fill="#C4A016" d="M1785.436,629.208c73.631,92.447,208.28,107.688,300.686,34.056
			c92.404-73.604,107.6-208.225,33.98-300.667c-73.614-92.38-208.208-107.64-300.596-34.042
			C1727.043,402.224,1711.817,536.8,1785.436,629.208z M1824.816,597.885c-56.313-70.68-44.604-173.645,26.074-229.944
			c70.621-56.265,173.588-44.635,229.857,26.096c56.373,70.653,44.654,173.55-26.027,229.876
			C1984.044,680.226,1881.104,668.533,1824.816,597.885z"/>
		<path fill="#C4A016" d="M1508.109,412.686c-398.288,311.941-625.937,262.896-625.937,262.896s203.094,146.896,442.41-18.268
			c246.259-169.995,427.777,94.868,427.777,94.868s-53.348,68.748,8.949,146.876c40.003,50.264,191.646,89.405,197.063,78.841
			c11.486-2.892,7.286-159.476-32.767-209.78c-62.28-78.144-141.193-41.43-141.193-41.43s-217.577-236.194,3.135-438.189
			c214.465-196.343,116.734-427.137,116.734-427.137S1901.209,94.192,1508.109,412.686z"/>
		<path fill="#C4A016" d="M1968.447,27.609c0,0-3.58,130.655-81.796,210.357c0,0,88.665-33.543,158.069-5.632
			C2044.721,232.334,2029.393,115.349,1968.447,27.609z"/>
		<g>
			<path fill="#C4A016" d="M1457.241,829.303c-6.293-7.869-9.818-16.995-10.889-26.298c-1.203,0.862-2.466,1.692-3.629,2.613
				c-32.644,26.013-38.04,73.56-12.017,106.201c25.998,32.634,73.559,38.051,106.203,12.022
				c32.663-26.029,38.017-73.544,12.058-106.176c-0.971-1.218-1.979-2.269-2.961-3.338c-3.131,8.797-8.604,16.914-16.462,23.147
				C1507.308,855.18,1474.93,851.499,1457.241,829.303z"/>
			<path fill="#C4A016" d="M1922.877,458.353c-6.264-7.775-9.736-16.869-10.821-26.117c-2.164,1.415-4.286,2.902-6.348,4.56
				c-32.633,26.011-38.092,73.646-12.007,106.214c26.012,32.663,73.557,38.036,106.207,12.016
				c32.643-26.021,38.063-73.531,12.076-106.229c-0.564-0.622-1.172-1.201-1.704-1.854c-3.269,7.441-8.254,14.202-15.062,19.601
				C1972.972,484.293,1940.578,480.585,1922.877,458.353z"/>
		</g>
	</g>
</g>
</svg>
