<?xml version="1.0" encoding="utf-8"?>
<!-- Generator: Adobe Illustrator 16.0.0, SVG Export Plug-In . SVG Version: 6.00 Build 0)  -->
<!DOCTYPE svg PUBLIC "-//W3C//DTD SVG 1.1 Tiny//EN" "http://www.w3.org/Graphics/SVG/1.1/DTD/svg11-tiny.dtd">
<svg version="1.1" baseProfile="tiny" id="Capa_1" xmlns="http://www.w3.org/2000/svg" xmlns:xlink="http://www.w3.org/1999/xlink"
	 x="0px" y="0px" width="90px" height="90px" viewBox="0 0 90 90" xml:space="preserve">
<g>
	<path fill="#765E10" d="M9.625,26.301h15.35l-5.209,7.688c-0.408,0.604-0.25,1.423,0.352,1.831c0.603,0.408,1.423,0.25,1.831-0.352
		l6.21-9.167h8.566l14.308,21.122C51.29,47.798,51.704,48,52.127,48c0.254,0,0.513-0.072,0.737-0.226
		c0.604-0.409,0.761-1.229,0.354-1.831L39.023,24.991l8.481-12.252c1.151-1.662,1.283-3.809,0.345-5.601
		c-0.94-1.791-2.779-2.905-4.801-2.905H21.837c-2.022,0-3.863,1.114-4.801,2.905c-0.938,1.792-0.807,3.938,0.344,5.601l5.566,8.04
		l-11.229-6.646c-0.626-0.37-1.436-0.163-1.806,0.463c-0.371,0.626-0.164,1.436,0.463,1.806l12.269,7.262H9.625
		c-0.729,0-1.318,0.59-1.318,1.319C8.307,25.711,8.896,26.301,9.625,26.301z M19.372,8.362c0.49-0.934,1.411-1.492,2.465-1.492
		h21.21c1.055,0,1.977,0.558,2.466,1.492c0.49,0.934,0.424,2.01-0.176,2.876l-8.603,12.425h-8.583l-8.603-12.425
		C18.949,10.372,18.882,9.296,19.372,8.362z"/>
	<path fill="#765E10" d="M69.098,43.962c-11.527,0-20.905,9.378-20.905,20.904c0,6.363,2.861,12.072,7.363,15.909
		c-2.361,1.526-5.133,2.355-7.965,2.355H17.295c-3.917,0-7.597-1.523-10.365-4.292c-2.769-2.77-4.293-6.449-4.293-10.364
		c0-2.943,0.873-5.785,2.522-8.223L18.961,39.88c0.409-0.603,0.25-1.422-0.352-1.831c-0.602-0.407-1.422-0.25-1.831,0.352
		L2.976,58.774C1.029,61.647,0,65.002,0,68.474c0,4.619,1.798,8.961,5.066,12.229c3.267,3.268,7.609,5.064,12.229,5.064h30.295
		c3.667,0,7.251-1.178,10.198-3.328c3.262,2.106,7.145,3.328,11.309,3.328c11.525,0,20.902-9.375,20.902-20.9
		C90,53.34,80.623,43.962,69.098,43.962z M69.098,83.13c-10.072,0-18.269-8.193-18.269-18.264c0-10.072,8.196-18.268,18.269-18.268
		s18.266,8.195,18.266,18.268C87.363,74.938,79.17,83.13,69.098,83.13z"/>
	<path fill="#765E10" d="M82.631,57.488c-0.35-0.641-1.149-0.875-1.79-0.525c-0.639,0.35-0.874,1.149-0.524,1.789
		c1.016,1.86,1.555,3.976,1.555,6.114c0,7.044-5.731,12.773-12.773,12.773c-7.045,0-12.775-5.73-12.775-12.773
		c0-7.045,5.73-12.774,12.775-12.774c2.983,0,5.889,1.05,8.175,2.957c0.56,0.466,1.391,0.392,1.857-0.168
		c0.466-0.561,0.392-1.392-0.169-1.857c-2.762-2.303-6.265-3.57-9.863-3.57c-8.499,0-15.412,6.914-15.412,15.411
		s6.913,15.412,15.412,15.412c8.496,0,15.41-6.915,15.41-15.412C84.508,62.287,83.858,59.736,82.631,57.488z"/>
	<path fill="#765E10" d="M69.098,75.044c0.727,0,1.318-0.591,1.318-1.319V72.35h0.431c2.426,0,4.401-1.976,4.401-4.402
		c0-2.426-1.976-4.399-4.401-4.399h-3.499c-0.975,0-1.766-0.793-1.766-1.767c0-0.972,0.791-1.764,1.766-1.764h5.131
		c0.728,0,1.318-0.592,1.318-1.318c0-0.729-0.591-1.32-1.318-1.32h-2.063v-1.375c0-0.728-0.592-1.318-1.318-1.318
		c-0.729,0-1.318,0.591-1.318,1.318v1.375h-0.432c-2.428,0-4.402,1.977-4.402,4.402s1.975,4.401,4.402,4.401h3.499
		c0.972,0,1.765,0.791,1.765,1.765s-0.793,1.766-1.765,1.766h-5.132c-0.729,0-1.319,0.59-1.319,1.318
		c0,0.727,0.591,1.318,1.319,1.318h2.064v1.375C67.779,74.453,68.368,75.044,69.098,75.044z"/>
	<path fill="#765E10" d="M58.462,27.588l1.029-0.825V38.85c0,0.729,0.589,1.319,1.318,1.319c0.729,0,1.318-0.59,1.318-1.319V26.763
		l1.03,0.825c0.244,0.194,0.534,0.288,0.824,0.288c0.387,0,0.769-0.169,1.028-0.495c0.456-0.569,0.363-1.398-0.204-1.854
		l-3.171-2.537c-0.005-0.003-0.009-0.004-0.014-0.008c-0.054-0.043-0.112-0.083-0.176-0.118c0,0-0.001-0.001-0.003-0.002
		c-0.059-0.032-0.122-0.06-0.186-0.083c-0.009-0.003-0.018-0.007-0.026-0.01c-0.062-0.021-0.123-0.037-0.189-0.048
		c-0.012-0.002-0.021-0.004-0.035-0.006c-0.063-0.009-0.128-0.016-0.197-0.016c-0.066,0-0.132,0.006-0.198,0.016
		c-0.011,0.002-0.021,0.003-0.033,0.006c-0.063,0.011-0.127,0.027-0.188,0.048c-0.009,0.003-0.017,0.006-0.024,0.01
		c-0.065,0.023-0.129,0.05-0.188,0.083c0,0.001-0.003,0.001-0.005,0.002c-0.062,0.035-0.118,0.074-0.175,0.118
		c-0.003,0.002-0.007,0.004-0.01,0.008l-3.173,2.537c-0.567,0.456-0.66,1.285-0.206,1.854C57.065,27.95,57.892,28.042,58.462,27.588
		z"/>
	<path fill="#765E10" d="M75.034,20.517l1.032-0.825v12.087c0,0.729,0.59,1.318,1.319,1.318c0.728,0,1.318-0.59,1.318-1.318V19.693
		l1.028,0.825c0.242,0.194,0.533,0.288,0.824,0.288c0.385,0,0.769-0.169,1.03-0.495c0.452-0.569,0.36-1.398-0.207-1.854
		l-3.173-2.537c-0.002-0.003-0.006-0.005-0.009-0.008c-0.057-0.043-0.114-0.083-0.176-0.117c-0.002,0-0.004-0.002-0.004-0.002
		c-0.06-0.033-0.123-0.06-0.187-0.083c-0.01-0.002-0.018-0.007-0.027-0.009c-0.06-0.021-0.124-0.037-0.188-0.048
		c-0.012-0.001-0.023-0.003-0.034-0.005c-0.065-0.01-0.132-0.017-0.197-0.017c-0.068,0-0.134,0.007-0.198,0.017
		c-0.013,0.001-0.022,0.002-0.035,0.005c-0.063,0.011-0.127,0.028-0.188,0.048c-0.01,0.002-0.017,0.006-0.026,0.009
		c-0.063,0.024-0.128,0.05-0.187,0.083c-0.002,0-0.004,0.001-0.004,0.002c-0.062,0.034-0.121,0.074-0.176,0.117
		c-0.004,0.003-0.009,0.005-0.011,0.008l-3.171,2.537c-0.57,0.454-0.661,1.285-0.206,1.854
		C73.637,20.879,74.468,20.972,75.034,20.517z"/>
</g>
</svg>
