<?xml version="1.0" encoding="utf-8"?>
<!-- Generator: Adobe Illustrator 16.0.0, SVG Export Plug-In . SVG Version: 6.00 Build 0)  -->
<!DOCTYPE svg PUBLIC "-//W3C//DTD SVG 1.1 Tiny//EN" "http://www.w3.org/Graphics/SVG/1.1/DTD/svg11-tiny.dtd">
<svg version="1.1" baseProfile="tiny" id="Capa_1" xmlns="http://www.w3.org/2000/svg" xmlns:xlink="http://www.w3.org/1999/xlink"
	 x="0px" y="0px" width="80px" height="90px" viewBox="0 0 80 90" xml:space="preserve">
<g>
	<path fill="#765E10" d="M58.544,50.953c0,0.729,0.589,1.318,1.318,1.318h5.747c0.765,0,1.419-0.494,1.627-1.23
		c0.208-0.735-0.089-1.497-0.739-1.896c-1.537-0.945-2.082-1.762-2.082-2.172V5.996c0-3.241-2.636-5.93-5.875-5.995
		c-0.031,0-0.061,0-0.091,0C58.438,0.001,58.427,0,58.418,0h-8.707h-8.706c-3.305,0-5.994,2.689-5.994,5.996v2.505h-2.259
		c-2.029,0-3.94,1.024-5.071,2.692c-0.068,0.099-0.133,0.2-0.194,0.303c-0.269,0.45-0.477,0.932-0.621,1.434
		c-0.144,0.501-0.225,1.021-0.237,1.547h-2.936c-0.042-1.638-1.385-2.958-3.034-2.958h-4.142v-1.001c0-0.728-0.59-1.318-1.318-1.318
		H3.478c-0.728,0-1.319,0.59-1.319,1.318c0,0.729,0.591,1.319,1.319,1.319H13.88v1.001v27.029v1.002H8.389
		c-0.729,0-1.319,0.59-1.319,1.318c0,0.729,0.59,1.318,1.319,1.318h6.81c0.728,0,1.318-0.59,1.318-1.318v-1.002h4.141
		c1.649,0,2.993-1.321,3.034-2.959h2.934v0.936c0,3.072,2.5,5.572,5.573,5.572h2.813v8.193c-5.899,3.456-9.87,9.861-9.87,17.179
		C25.14,81.074,34.065,90,45.035,90c5.32,0,10.32-2.072,14.079-5.837c0.515-0.515,0.514-1.35-0.002-1.864
		c-0.516-0.516-1.349-0.515-1.863,0c-3.262,3.267-7.599,5.064-12.213,5.064c-9.516,0-17.259-7.742-17.259-17.259
		s7.742-17.259,17.259-17.259c9.518,0,17.26,7.742,17.26,17.259c0,2.883-0.727,5.736-2.097,8.25c-0.349,0.64-0.112,1.44,0.526,1.788
		c0.639,0.35,1.439,0.114,1.788-0.525c1.581-2.899,2.419-6.189,2.419-9.513c0-7.317-3.972-13.723-9.871-17.179v-8.193h0.392
		c2.88,0,5.224-2.344,5.224-5.224c0-1.553-0.681-2.948-1.761-3.905c1.079-0.958,1.761-2.353,1.761-3.905
		c0-1.553-0.681-2.948-1.761-3.906c1.079-0.957,1.76-2.353,1.76-3.905c0-1.552-0.681-2.948-1.76-3.906
		c1.079-0.958,1.76-2.354,1.76-3.906c0-2.879-2.343-5.222-5.223-5.222h-0.391V6.09c0.002-0.929,0.387-1.837,1.057-2.494
		c0.564-0.553,1.279-0.879,2.031-0.946c0.024-0.002,0.051-0.002,0.077-0.004c0.086-0.006,0.173-0.01,0.261-0.009
		c1.815,0.036,3.292,1.543,3.292,3.359v40.977c0,0.919,0.385,1.81,1.148,2.663h-3.064C59.135,49.637,58.544,50.226,58.544,50.953z
		 M41.005,2.637h3.742c-0.311,0.46-0.563,0.967-0.741,1.516c-0.191,0.594-0.289,1.215-0.289,1.843c0,0.729,0.591,1.318,1.318,1.318
		c0.729,0,1.318-0.59,1.318-1.318c0-0.354,0.056-0.703,0.161-1.033c0.451-1.391,1.735-2.326,3.197-2.326h3.737
		c-0.152,0.226-0.288,0.464-0.408,0.713c-0.013,0.025-0.025,0.05-0.037,0.075c-0.042,0.09-0.082,0.182-0.12,0.274
		c-0.021,0.053-0.045,0.107-0.064,0.161c-0.037,0.094-0.07,0.189-0.102,0.286c-0.014,0.04-0.025,0.079-0.037,0.119
		c-0.037,0.119-0.069,0.238-0.099,0.358c-0.004,0.02-0.009,0.04-0.013,0.061c-0.025,0.116-0.049,0.233-0.067,0.351
		c-0.004,0.024-0.009,0.048-0.012,0.073c-0.021,0.13-0.035,0.263-0.046,0.395c-0.003,0.026-0.004,0.053-0.006,0.079
		c-0.01,0.138-0.016,0.277-0.016,0.416V6.08c0,0.007-0.002,0.014-0.002,0.021c0,0.004,0.002,0.007,0.002,0.01v2.644
		c-0.463-0.162-0.961-0.251-1.479-0.251h-2.002c-0.017,0-0.035,0-0.052,0H37.647V5.996C37.647,4.144,39.153,2.637,41.005,2.637z
		 M21.061,38.147c0,0.221-0.181,0.401-0.402,0.401h-4.142V14.155h4.141c0.222,0,0.402,0.179,0.402,0.401L21.061,38.147
		L21.061,38.147z M32.199,42.096c-1.619,0-2.936-1.316-2.936-2.936v-2.253c0-0.729-0.59-1.318-1.319-1.318h-4.247V17.114h4.247l0,0
		c0.729,0,1.319-0.59,1.319-1.318v-1.168c0-0.31,0.042-0.615,0.121-0.91c0.083-0.306,0.206-0.6,0.369-0.874
		c0.577-0.971,1.599-1.602,2.714-1.693c0.095-0.008,0.189-0.013,0.284-0.013h16.09c0.017,0.001,0.035,0.001,0.052,0.001h2.053
		c1.018,0,1.845,0.827,1.845,1.843v6.982c0,0.006-0.001,0.011-0.001,0.017c0,0.006,0.001,0.012,0.001,0.018v6.335
		c0,0.076-0.062,0.137-0.137,0.14h-1.912c-1.816-0.009-3.293-1.49-3.293-3.31V17.99c0-0.728-0.591-1.318-1.318-1.318h-2.351
		c-0.008,0-0.016,0-0.024,0h-1.387c-1.524,0-2.766,1.24-2.766,2.766v0.779c0,3.033-2.468,5.501-5.501,5.501
		c-0.729,0-1.318,0.59-1.318,1.318c0,0.728,0.589,1.318,1.318,1.318c0.307,0,0.61-0.019,0.909-0.052v13.792L32.199,42.096
		L32.199,42.096z M44.813,22.868v0.298c0,0.931,0.216,1.813,0.599,2.598c-0.497-0.472-0.811-1.137-0.811-1.875
		C44.601,23.53,44.677,23.184,44.813,22.868z M52.423,51.633c-1.896-0.762-3.938-1.238-6.069-1.379v-2.266
		c0-0.729-0.59-1.318-1.319-1.318c-0.728,0-1.318,0.59-1.318,1.318v2.266c-2.131,0.141-4.172,0.617-6.069,1.379V27.541
		c2.716-1.32,4.593-4.106,4.593-7.324v-0.778c0-0.071,0.057-0.129,0.129-0.129h0.719c0.192,0.244,0.406,0.47,0.639,0.675
		c-1.09,0.971-1.762,2.379-1.762,3.904c0,1.552,0.681,2.948,1.76,3.905c-1.079,0.958-1.76,2.353-1.76,3.906
		c0,1.552,0.681,2.947,1.759,3.905c-1.078,0.958-1.759,2.353-1.759,3.905c0,2.88,2.343,5.224,5.224,5.224h5.235V51.633
		L52.423,51.633z M58.039,39.509c0,1.426-1.161,2.586-2.587,2.586h-1.706c-0.001,0-0.002,0-0.004,0c-0.001,0-0.003,0-0.003,0h-6.551
		c-1.427,0-2.587-1.16-2.587-2.586c0-1.427,1.16-2.587,2.587-2.587h8.265C56.878,36.922,58.039,38.083,58.039,39.509z
		 M47.188,34.285c-1.427,0-2.588-1.16-2.588-2.586c0-1.427,1.161-2.587,2.588-2.587h3.571h1.891h2.802
		c1.426,0,2.587,1.16,2.587,2.587c0,1.426-1.161,2.586-2.587,2.586H47.188z M58.038,23.889c0,1.425-1.16,2.585-2.586,2.585H55.42
		c0.003-0.047,0.007-0.093,0.007-0.139v-5.035h0.025C56.878,21.301,58.038,22.462,58.038,23.889z M58.038,16.077
		c0,1.426-1.16,2.587-2.586,2.587h-0.025v-5.172h0.025C56.878,13.491,58.038,14.651,58.038,16.077z"/>
	<path fill="#765E10" d="M21.109,53.372c-1.797-0.575-2.309-1.087-2.884-2.885c-0.229-0.714-0.886-1.192-1.636-1.192h-0.001
		c-0.75,0-1.407,0.479-1.636,1.192c-0.575,1.798-1.086,2.31-2.885,2.885c-0.713,0.229-1.193,0.886-1.193,1.636
		s0.48,1.407,1.193,1.637c1.797,0.574,2.31,1.086,2.885,2.883c0.229,0.715,0.886,1.194,1.636,1.194c0,0,0,0,0.001,0
		c0.749,0,1.407-0.479,1.636-1.193c0.575-1.798,1.087-2.31,2.884-2.884c0.714-0.229,1.193-0.886,1.193-1.636
		S21.824,53.6,21.109,53.372z M17.465,51.291L17.465,51.291L17.465,51.291C17.465,51.293,17.465,51.291,17.465,51.291z
		 M16.59,56.729c-0.448-0.723-0.999-1.273-1.722-1.721c0.724-0.447,1.274-0.998,1.722-1.721c0.446,0.723,0.998,1.273,1.721,1.721
		C17.588,55.455,17.036,56.006,16.59,56.729z"/>
	<path fill="#765E10" d="M76.646,75.929c-1.798-0.575-2.309-1.088-2.885-2.884c-0.229-0.715-0.886-1.194-1.636-1.194
		c-0.749,0-1.407,0.48-1.637,1.194l0,0c-0.575,1.796-1.087,2.308-2.884,2.883c-0.714,0.229-1.194,0.886-1.194,1.636
		s0.48,1.407,1.194,1.636c1.797,0.575,2.309,1.088,2.884,2.885c0.229,0.713,0.888,1.193,1.637,1.193c0.75,0,1.407-0.48,1.636-1.193
		c0.576-1.797,1.087-2.31,2.885-2.885c0.713-0.229,1.193-0.886,1.193-1.635C77.839,76.814,77.358,76.156,76.646,75.929z
		 M72.126,79.286c-0.448-0.724-0.999-1.274-1.723-1.722c0.724-0.447,1.274-0.998,1.723-1.723c0.447,0.725,0.998,1.275,1.722,1.723
		C73.124,78.012,72.573,78.563,72.126,79.286z"/>
	<path fill="#765E10" d="M67.605,33.824c1.798,0.575,2.311,1.087,2.886,2.884c0.229,0.714,0.886,1.194,1.635,1.194
		c0.75,0,1.408-0.48,1.637-1.194c0.575-1.797,1.087-2.309,2.884-2.884c0.714-0.229,1.194-0.886,1.194-1.636s-0.48-1.407-1.194-1.636
		c-1.797-0.575-2.309-1.087-2.884-2.884c-0.229-0.714-0.887-1.194-1.637-1.194c-0.749,0-1.406,0.48-1.635,1.194
		c-0.575,1.797-1.088,2.309-2.886,2.884c-0.713,0.229-1.193,0.886-1.193,1.636S66.891,33.596,67.605,33.824z M72.126,30.467
		c0.447,0.723,0.998,1.274,1.722,1.722c-0.724,0.447-1.274,0.998-1.722,1.721c-0.448-0.724-0.999-1.274-1.723-1.721
		C71.127,31.742,71.678,31.19,72.126,30.467z"/>
	<path fill="#765E10" d="M36.401,67.668l3.176-1.069c0.69-0.232,1.061-0.98,0.828-1.671c-0.233-0.689-0.981-1.061-1.67-0.828
		l-3.176,1.07c-0.971,0.327-1.709,1.073-2.025,2.047s-0.157,2.012,0.436,2.846l2.485,3.5c0.068,0.095,0.104,0.207,0.105,0.324
		l0.047,4.292c0.011,1.024,0.492,1.957,1.321,2.558c0.558,0.406,1.21,0.615,1.874,0.615c0.323,0,0.648-0.049,0.967-0.149
		l4.097-1.282c0.111-0.035,0.229-0.035,0.34,0l4.098,1.282c0.976,0.306,2.013,0.136,2.84-0.466c0.829-0.601,1.312-1.533,1.322-2.558
		l0.046-4.294c0.002-0.115,0.038-0.228,0.105-0.322l2.485-3.5c0.593-0.834,0.752-1.873,0.435-2.846
		c-0.316-0.974-1.054-1.72-2.023-2.047l-4.069-1.37c-0.109-0.036-0.205-0.106-0.275-0.2l-2.559-3.445
		c-0.611-0.822-1.55-1.294-2.573-1.294s-1.962,0.472-2.573,1.294l-0.634,0.852c-0.434,0.585-0.313,1.411,0.272,1.845
		c0.584,0.434,1.41,0.313,1.844-0.271l0.635-0.854c0.147-0.199,0.349-0.229,0.455-0.229c0.107,0,0.308,0.03,0.456,0.229l2.561,3.445
		c0.391,0.527,0.927,0.917,1.548,1.125l4.069,1.371c0.235,0.08,0.326,0.262,0.359,0.362s0.066,0.302-0.078,0.505l-2.484,3.5
		c-0.38,0.535-0.584,1.164-0.592,1.82l-0.047,4.294c-0.001,0.249-0.146,0.391-0.234,0.452c-0.086,0.063-0.265,0.158-0.504,0.083
		l-4.096-1.282c-0.627-0.196-1.289-0.196-1.916,0l-4.097,1.282c-0.237,0.074-0.418-0.021-0.504-0.083
		c-0.086-0.062-0.231-0.205-0.234-0.452l-0.047-4.294c-0.007-0.656-0.211-1.285-0.592-1.82l-2.485-3.5
		c-0.144-0.203-0.109-0.404-0.077-0.505C36.076,67.93,36.166,67.748,36.401,67.668z"/>
</g>
</svg>
