<?xml version="1.0" encoding="utf-8"?>
<!-- Generator: Adobe Illustrator 16.0.0, SVG Export Plug-In . SVG Version: 6.00 Build 0)  -->
<!DOCTYPE svg PUBLIC "-//W3C//DTD SVG 1.1 Tiny//EN" "http://www.w3.org/Graphics/SVG/1.1/DTD/svg11-tiny.dtd">
<svg version="1.1" baseProfile="tiny" id="Capa_1" xmlns="http://www.w3.org/2000/svg" xmlns:xlink="http://www.w3.org/1999/xlink"
	 x="0px" y="0px" width="90px" height="90px" viewBox="0 0 90 90" xml:space="preserve">
<g>
	<path fill="#765E10" d="M57.413,23.39c2.424,0,4.396-1.971,4.396-4.395s-1.972-4.395-4.396-4.395c-2.423,0-4.393,1.972-4.393,4.395
		c0,0.989,0.329,1.903,0.882,2.639l-7.221,10.09c-0.431-0.142-0.891-0.219-1.368-0.219c-1.154,0-2.206,0.449-2.991,1.179
		l-4.812-2.731c0.063-0.298,0.098-0.606,0.098-0.924c0-2.423-1.971-4.394-4.395-4.394s-4.395,1.971-4.395,4.394
		c0,0.317,0.034,0.626,0.099,0.924l-4.813,2.731c-0.785-0.73-1.837-1.179-2.991-1.179c-2.423,0-4.396,1.972-4.396,4.394
		c0,2.424,1.972,4.396,4.396,4.396c2.422,0,4.394-1.972,4.394-4.396c0-0.316-0.034-0.625-0.099-0.923l4.813-2.731
		c0.785,0.73,1.836,1.18,2.991,1.18s2.206-0.449,2.991-1.18l4.813,2.731c-0.064,0.298-0.098,0.607-0.098,0.923
		c0,2.424,1.972,4.396,4.395,4.396c2.423,0,4.395-1.972,4.395-4.396c0-0.989-0.328-1.903-0.883-2.639l7.221-10.09
		C56.478,23.313,56.937,23.39,57.413,23.39z M57.413,17.237c0.971,0,1.759,0.789,1.759,1.758c0,0.969-0.788,1.757-1.759,1.757
		c-0.968,0-1.757-0.788-1.757-1.757C55.656,18.026,56.445,17.237,57.413,17.237z M21.114,37.658c-0.969,0-1.758-0.789-1.758-1.758
		c0-0.969,0.79-1.757,1.758-1.757s1.757,0.789,1.757,1.757C22.872,36.869,22.083,37.658,21.114,37.658z M33.214,30.787
		c-0.969,0-1.757-0.788-1.757-1.757s0.789-1.757,1.757-1.757c0.969,0,1.758,0.788,1.758,1.757S34.184,30.787,33.214,30.787z
		 M45.314,37.658c-0.97,0-1.758-0.789-1.758-1.758c0-0.969,0.789-1.757,1.758-1.757c0.969,0,1.757,0.789,1.757,1.757
		C47.071,36.869,46.283,37.658,45.314,37.658z"/>
	<path fill="#765E10" d="M73.616,66.263h-9.226H14.138H3.729c-0.603,0-1.092-0.489-1.092-1.092v-54.39
		c0-0.602,0.489-1.092,1.092-1.092h6.215c0.728,0,1.318-0.591,1.318-1.319c0-0.729-0.59-1.318-1.318-1.318H3.729
		C1.673,7.052,0,8.725,0,10.781v54.39c0,2.056,1.673,3.729,3.729,3.729h9.09v2.901c0,1.653,1.346,2.999,2.998,2.999h13.197
		l-6.211,12.128c-0.332,0.648-0.076,1.443,0.572,1.774c0.192,0.099,0.397,0.146,0.6,0.146c0.479,0,0.941-0.263,1.174-0.718
		l6.828-13.33h14.576l6.828,13.33c0.233,0.456,0.695,0.718,1.175,0.718c0.202,0,0.407-0.047,0.6-0.146
		c0.648-0.331,0.904-1.127,0.572-1.774L49.515,74.8h13.197c1.652,0,2.997-1.345,2.997-2.999v-2.901h7.907
		c0.729,0,1.318-0.59,1.318-1.317C74.935,66.854,74.345,66.263,73.616,66.263z M63.073,71.801c0,0.2-0.163,0.361-0.361,0.361H15.816
		c-0.199,0-0.361-0.161-0.361-0.361v-2.901h47.618V71.801z"/>
	<path fill="#765E10" d="M15.217,9.688h18.048h11.998H74.8c0.603,0,1.093,0.489,1.093,1.092v12.535c0,0.729,0.59,1.318,1.318,1.318
		s1.318-0.59,1.318-1.318V10.781c0-2.056-1.674-3.729-3.729-3.729H46.581V4.46c0-1.823-1.484-3.308-3.308-3.308h-8.019
		c-1.824,0-3.308,1.485-3.308,3.308v2.592h-16.73c-0.728,0-1.318,0.59-1.318,1.318C13.899,9.098,14.489,9.688,15.217,9.688z
		 M34.584,4.46c0-0.37,0.301-0.671,0.671-0.671h8.019c0.37,0,0.671,0.301,0.671,0.671v2.592h-9.36V4.46L34.584,4.46z"/>
	<path fill="#765E10" d="M18.44,47.034c-0.729,0-1.318,0.591-1.318,1.318v11.65c0,0.728,0.59,1.317,1.318,1.317h5.349
		c0.728,0,1.318-0.59,1.318-1.317v-11.65c0-0.728-0.59-1.318-1.318-1.318H18.44z M22.47,58.686h-2.712v-9.014h2.712V58.686z"/>
	<path fill="#765E10" d="M30.54,40.297c-0.729,0-1.318,0.59-1.318,1.318v18.387c0,0.728,0.589,1.317,1.318,1.317h5.349
		c0.728,0,1.318-0.59,1.318-1.317V41.616c0-0.729-0.591-1.318-1.318-1.318H30.54z M34.57,58.686h-2.712V42.934h2.712V58.686z"/>
	<path fill="#765E10" d="M42.64,47.034c-0.728,0-1.318,0.591-1.318,1.318v11.65c0,0.728,0.59,1.317,1.318,1.317h5.349
		c0.728,0,1.318-0.59,1.318-1.317v-11.65c0-0.728-0.591-1.318-1.318-1.318H42.64z M46.67,58.686h-2.712v-9.014h2.712V58.686z"/>
	<path fill="#765E10" d="M54.74,54.814c-0.729,0-1.319,0.589-1.319,1.317v3.871c0,0.728,0.591,1.317,1.319,1.317h5.348
		c0.729,0,1.319-0.59,1.319-1.317c0-0.729-0.59-1.319-1.319-1.319h-4.029v-2.552C56.059,55.403,55.468,54.814,54.74,54.814z"/>
	<path fill="#765E10" d="M89.328,67.503l-7.564-13.1c1.917-2.042,3.313-4.537,4.058-7.319c1.191-4.446,0.58-9.09-1.722-13.077
		c-4.75-8.229-15.311-11.057-23.538-6.307s-11.058,15.31-6.307,23.539c2.301,3.986,6.016,6.837,10.462,8.028
		c1.484,0.396,2.991,0.594,4.488,0.594c1.309,0,2.608-0.149,3.881-0.448l7.562,13.102c0.927,1.605,2.615,2.504,4.348,2.504
		c0.851,0,1.71-0.216,2.498-0.67C89.04,73.457,90,71.792,90,70.006C90,69.132,89.768,68.266,89.328,67.503z M65.4,56.721
		c-3.767-1.008-6.913-3.424-8.862-6.799c-4.023-6.97-1.627-15.914,5.342-19.938c2.292-1.324,4.798-1.953,7.272-1.953
		c5.048,0,9.964,2.618,12.664,7.294c1.949,3.376,2.467,7.309,1.458,11.074c-1.009,3.765-3.425,6.912-6.801,8.861
		C73.099,57.212,69.165,57.729,65.4,56.721z M86.176,72.065c-1.135,0.654-2.59,0.265-3.244-0.868l-7.275-12.604
		c0.729-0.297,1.443-0.646,2.137-1.046c0.694-0.401,1.352-0.847,1.974-1.329l7.277,12.604c0.209,0.361,0.319,0.771,0.319,1.186
		C87.363,70.854,86.909,71.644,86.176,72.065z"/>
	<path fill="#765E10" d="M81.13,46.338c0.932-2.998,0.71-6.208-0.624-9.038c-0.311-0.659-1.096-0.941-1.754-0.631
		c-0.659,0.311-0.942,1.096-0.631,1.755c1.051,2.232,1.226,4.765,0.491,7.132c-0.739,2.38-2.336,4.378-4.495,5.625
		c-2.285,1.32-4.948,1.67-7.497,0.987c-2.55-0.684-4.681-2.318-6-4.604c-2.725-4.719-1.102-10.773,3.616-13.497
		c3.45-1.992,7.731-1.725,10.908,0.678c0.581,0.44,1.407,0.325,1.846-0.256c0.44-0.581,0.325-1.408-0.256-1.847
		c-4.023-3.044-9.447-3.381-13.817-0.859c-2.895,1.672-4.966,4.371-5.831,7.601c-0.866,3.229-0.421,6.603,1.25,9.498
		c1.673,2.896,4.371,4.967,7.6,5.832c1.079,0.289,2.174,0.432,3.261,0.432c2.169,0,4.31-0.569,6.238-1.683
		C78.173,51.884,80.195,49.354,81.13,46.338z"/>
</g>
</svg>
