<?xml version="1.0" encoding="utf-8"?>
<!-- Generator: Adobe Illustrator 16.0.0, SVG Export Plug-In . SVG Version: 6.00 Build 0)  -->
<!DOCTYPE svg PUBLIC "-//W3C//DTD SVG 1.1 Tiny//EN" "http://www.w3.org/Graphics/SVG/1.1/DTD/svg11-tiny.dtd">
<svg version="1.1" baseProfile="tiny" id="Capa_1" xmlns="http://www.w3.org/2000/svg" xmlns:xlink="http://www.w3.org/1999/xlink"
	 x="0px" y="0px" width="80px" height="90px" viewBox="0 0 80 90" xml:space="preserve">
<g>
	<path fill="#765E10" d="M33.956,31.417c0.866,0.399,1.776,0.588,2.672,0.588c2.427,0,4.752-1.385,5.833-3.729
		c1.479-3.211,0.069-7.027-3.143-8.505c-1.555-0.716-3.296-0.784-4.903-0.19c-1.606,0.594-2.885,1.776-3.602,3.332
		c-0.717,1.556-0.785,3.297-0.191,4.903C31.217,29.423,32.4,30.701,33.956,31.417z M33.208,24.016
		c0.421-0.917,1.175-1.613,2.121-1.962c0.426-0.157,0.869-0.236,1.31-0.236c0.537,0,1.073,0.117,1.576,0.349
		c1.89,0.87,2.72,3.118,1.85,5.007c-0.871,1.891-3.117,2.721-5.008,1.85c-0.916-0.421-1.612-1.175-1.962-2.121
		C32.747,25.957,32.787,24.931,33.208,24.016z"/>
	<path fill="#765E10" d="M23.839,60.229l4.501,2.073c0.178,0.083,0.366,0.122,0.551,0.122c0.499,0,0.976-0.285,1.198-0.768
		c0.304-0.662,0.015-1.445-0.646-1.75l-4.157-1.913l3.179-4.916c0.034-0.052,0.064-0.107,0.091-0.164
		c0.456-0.991,0.5-2.103,0.121-3.126c-0.378-1.024-1.132-1.84-2.124-2.297c-0.992-0.456-2.103-0.5-3.126-0.12
		c-1.024,0.378-1.84,1.132-2.296,2.123c-0.027,0.058-0.048,0.116-0.067,0.176l-1.667,5.61l-3.309-1.522
		c0.979-9.969,3.798-23.023,6.955-32.124c0.239-0.688-0.125-1.439-0.813-1.677s-1.439,0.125-1.677,0.813
		c-3.318,9.564-6.27,23.414-7.177,33.679c-0.049,0.555,0.256,1.081,0.762,1.313l4.501,2.073l-1.583,5.33l0,0
		c-0.3,1.007,0.176,2.058,1.131,2.497c0.287,0.132,0.587,0.194,0.884,0.194c0.688,0,1.35-0.342,1.748-0.958L23.839,60.229z
		 M23.562,50.525c0.167-0.316,0.441-0.557,0.78-0.682c0.364-0.135,0.757-0.119,1.109,0.043s0.619,0.45,0.753,0.814
		c0.125,0.339,0.12,0.704-0.012,1.037l-5.531,8.546L23.562,50.525z"/>
	<path fill="#765E10" d="M75.803,17.741c-0.312-0.351-0.786-0.509-1.245-0.417l-5.111,1.027c-0.065,0.014-0.134,0.01-0.197-0.011
		l-4.994-1.633c-3.525-1.151-7.328,0.778-8.479,4.301l-0.552,1.688c0.055-0.69,0.08-1.395,0.074-2.113
		c0.007-0.056,0.011-0.113,0.009-0.171C55.155,10.357,49.18,0.995,48.925,0.601c-0.266-0.412-0.737-0.638-1.223-0.595
		c-0.021,0.002-0.04,0.001-0.061,0.004c-0.008,0-0.022,0.003-0.042,0.005c-0.861,0.121-11.576,1.731-19.162,8.022
		c-0.044,0.037-0.086,0.076-0.125,0.118c-2.492,2.098-4.377,4.489-5.587,7.117l-0.216,0.478c-0.299,0.664-0.003,1.444,0.661,1.743
		c0.664,0.3,1.443,0.004,1.743-0.66l0.21-0.463c1.039-2.257,2.58-4.161,4.379-5.763L52.67,21.275
		c-0.052,2.407-0.497,4.814-1.539,7.074c-1.437,3.122-3.789,7.11-6.819,11.563l-13.777-1.539c-0.006-0.001-0.013-0.001-0.019-0.001
		c-2.228-0.218-4.215,1.419-4.432,3.646c-0.002,0.025-0.003,0.051-0.005,0.077c-0.003,0.042-0.008,0.085-0.01,0.127
		c0,0.018,0,0.036,0,0.054c-0.001,0.051-0.003,0.102-0.003,0.153c0,0.006,0,0.012,0,0.017c0.006,0.927,0.327,1.816,0.924,2.542
		c0.018,0.021,0.037,0.04,0.055,0.06c0.051,0.06,0.104,0.119,0.16,0.177c0.041,0.042,0.083,0.083,0.124,0.124
		c0.051,0.047,0.102,0.094,0.154,0.138c0.051,0.044,0.101,0.084,0.153,0.127c0.05,0.037,0.101,0.075,0.152,0.112
		c0.055,0.039,0.111,0.076,0.168,0.113c0.058,0.036,0.117,0.071,0.177,0.105c0.051,0.028,0.102,0.056,0.153,0.083
		c0.076,0.038,0.151,0.074,0.229,0.107c0.037,0.017,0.074,0.031,0.111,0.046c0.096,0.038,0.192,0.072,0.291,0.104
		c0.021,0.006,0.041,0.012,0.061,0.018c0.111,0.032,0.222,0.061,0.337,0.084c0.009,0.002,0.017,0.004,0.026,0.005
		c0.124,0.023,0.25,0.043,0.378,0.057l11.543,1.288l-4.277,5.777c-0.001,0.002-0.003,0.005-0.005,0.007l-2.117,2.859
		c-0.004,0.006-0.007,0.012-0.012,0.017c-0.034,0.05-0.066,0.101-0.095,0.152v0.001c-0.001,0.004-0.005,0.007-0.007,0.012
		l-0.409,0.732c-0.003,0.008-0.008,0.014-0.012,0.021l-13.67,24.512c-0.346,0.618-0.14,1.399,0.465,1.768l6.043,3.688
		c0.214,0.13,0.452,0.192,0.686,0.192c0.398,0,0.79-0.18,1.048-0.518l11.029-14.413c0.442-0.577,0.333-1.405-0.246-1.847
		c-0.579-0.442-1.405-0.333-1.849,0.245l-10.306,13.47l-3.949-2.409l9.06-16.244l1.485-2.662c0.509,1.095,1.334,2.059,2.438,2.74
		l12.15,7.503l-3.629,12.996c-0.194,0.696,0.207,1.418,0.899,1.62l6.796,1.99C52.9,89.982,53.025,90,53.149,90
		c0.222,0,0.441-0.057,0.639-0.165c0.308-0.17,0.534-0.457,0.63-0.797l5.321-18.93c0.619-2.112-0.265-4.383-2.149-5.521
		l-7.993-4.833l8.076-10.908c0.89-1.204,1.36-2.627,1.36-4.116c0-2.187-1.048-4.269-2.805-5.571
		c-2.509-1.855-5.871-1.759-8.256,0.014c1.927-2.954,3.527-5.671,4.731-8.032c-0.288,3.63,1.927,7.131,5.537,8.31
		c0.812,0.267,1.655,0.401,2.51,0.401c3.502,0,6.585-2.236,7.672-5.564l1.139-3.482c0,0,0,0,0-0.001
		c0.243-0.745,0.373-1.507,0.396-2.276c2.146-0.82,3.854-2.579,4.575-4.791l1.538-4.708C76.216,18.581,76.114,18.091,75.803,17.741z
		 M31.835,8.779c5.771-3.991,12.901-5.571,15.317-6.014c0.73,1.258,2.236,4.034,3.492,7.538c0.005,0.015,0.01,0.028,0.016,0.042
		c0.124,0.349,0.246,0.704,0.364,1.066c0.015,0.043,0.028,0.087,0.043,0.131c0.042,0.133,0.086,0.267,0.126,0.402
		c0.016,0.051,0.033,0.104,0.049,0.156c0.052,0.169,0.103,0.34,0.154,0.511c0.015,0.053,0.029,0.106,0.045,0.159
		c0.034,0.121,0.069,0.242,0.103,0.364c0.021,0.083,0.045,0.166,0.067,0.248c0.025,0.094,0.05,0.188,0.074,0.284
		c0.023,0.09,0.048,0.18,0.069,0.271c0.025,0.099,0.049,0.197,0.072,0.296c0.039,0.163,0.079,0.326,0.116,0.49
		c0.018,0.073,0.034,0.145,0.049,0.218c0.025,0.112,0.049,0.224,0.072,0.335c0.014,0.064,0.026,0.128,0.04,0.193
		c0.08,0.395,0.152,0.793,0.218,1.195c0.009,0.052,0.018,0.104,0.025,0.157c0.021,0.126,0.039,0.253,0.058,0.379
		c0.007,0.051,0.015,0.101,0.021,0.151c0.044,0.319,0.082,0.641,0.115,0.963L31.835,8.779z M31.114,43.95l-1.111-0.124
		c-0.006,0-0.013-0.001-0.019-0.002c-0.048-0.004-0.096-0.012-0.143-0.021c-0.006,0-0.011-0.002-0.017-0.004
		c-0.598-0.127-1.045-0.626-1.115-1.225c0-0.004-0.001-0.01-0.001-0.016c-0.004-0.034-0.005-0.069-0.005-0.105
		c0-0.013-0.001-0.026-0.001-0.038c0-0.034,0.002-0.067,0.004-0.102c0.001-0.014,0.001-0.027,0.001-0.041
		c0.001-0.009,0.002-0.018,0.004-0.027c0.004-0.038,0.01-0.075,0.017-0.111c0.004-0.02,0.01-0.04,0.015-0.06
		c0.006-0.025,0.011-0.05,0.018-0.075c0.007-0.022,0.016-0.043,0.023-0.065c0.007-0.021,0.014-0.042,0.022-0.062
		c0.01-0.023,0.02-0.046,0.03-0.067c0.009-0.018,0.017-0.036,0.026-0.053c0.012-0.023,0.026-0.046,0.039-0.067
		c0.009-0.015,0.019-0.031,0.028-0.046c0.015-0.023,0.031-0.045,0.047-0.066c0.01-0.014,0.02-0.026,0.03-0.039
		c0.018-0.022,0.036-0.044,0.055-0.065c0.011-0.011,0.02-0.022,0.031-0.034c0.02-0.021,0.041-0.041,0.062-0.061
		c0.01-0.009,0.021-0.019,0.032-0.029c0.022-0.02,0.045-0.038,0.068-0.056c0.011-0.008,0.021-0.017,0.033-0.025
		c0.024-0.017,0.048-0.035,0.074-0.051c0.011-0.007,0.023-0.014,0.035-0.022c0.026-0.015,0.052-0.03,0.079-0.043
		c0.012-0.007,0.025-0.012,0.037-0.018c0.026-0.013,0.054-0.025,0.082-0.036c0.014-0.006,0.028-0.01,0.041-0.015
		c0.027-0.01,0.055-0.021,0.083-0.029c0.015-0.004,0.031-0.008,0.047-0.012c0.027-0.007,0.055-0.015,0.083-0.019
		c0.018-0.003,0.035-0.006,0.053-0.009c0.027-0.004,0.052-0.009,0.08-0.011c0.022-0.002,0.044-0.002,0.066-0.004
		c0.023-0.001,0.047-0.003,0.07-0.003c0.045,0,0.091,0.001,0.137,0.006l0.461,0.052l0.786,0.087L31.114,43.95z M56.226,66.842
		L56.226,66.842c0.862,0.521,1.267,1.559,0.979,2.539l-4.965,17.66l-4.267-1.249l3.544-12.698c0.158-0.565-0.077-1.167-0.576-1.477
		l-12.994-8.022c-1.707-1.055-2.28-3.252-1.309-5.006l0.4-0.717l1.345-1.816l4.497,2.718L56.226,66.842z M54.66,41.276
		c1.104,0.818,1.737,2.076,1.737,3.452c0,0.919-0.291,1.802-0.844,2.547l-8.223,11.108l-2.953-1.785l-4.417-2.671l4.333-5.852
		l6.551,0.731c0.007,0.001,0.014,0.001,0.019,0.001c0.135,0.013,0.268,0.02,0.399,0.02c0.938,0,1.838-0.321,2.572-0.924
		c0.836-0.688,1.355-1.663,1.46-2.741c0.104-1.079-0.216-2.134-0.904-2.971c-0.686-0.834-1.656-1.353-2.731-1.459l-0.84-0.094
		C52.082,40.24,53.515,40.43,54.66,41.276z M51.374,43.354c0.007,0.001,0.013,0.001,0.019,0.001c0.78,0.076,1.354,0.772,1.277,1.552
		c-0.038,0.377-0.219,0.719-0.512,0.959c-0.292,0.239-0.658,0.352-1.033,0.318l-17.39-1.942l0.383-2.816l13.149,1.469
		c0.004,0.001,0.008,0.001,0.015,0.001L51.374,43.354z M67.055,29.982l-1.139,3.483c-0.732,2.241-2.807,3.747-5.165,3.747
		c-0.574,0-1.142-0.09-1.69-0.271c-2.848-0.93-4.408-4.005-3.479-6.854l0.337-1.029l2.731,0.893c0.06,0.021,0.121,0.034,0.183,0.044
		c0.013,0.002,0.027,0.005,0.04,0.007c0.06,0.009,0.12,0.013,0.18,0.014c0.002,0,0.005,0,0.007,0c0.005,0,0.011-0.001,0.016-0.001
		c0.058,0,0.116-0.005,0.172-0.013c0.009-0.001,0.019-0.003,0.027-0.004c0.06-0.009,0.117-0.024,0.176-0.042
		c0.011-0.003,0.021-0.007,0.03-0.011c0.058-0.02,0.115-0.042,0.169-0.069l0,0c0.056-0.028,0.107-0.061,0.158-0.095
		c0.009-0.006,0.019-0.014,0.029-0.02c0.048-0.036,0.095-0.073,0.138-0.116c0.006-0.006,0.012-0.013,0.018-0.019
		c0.04-0.039,0.076-0.081,0.11-0.125c0.006-0.008,0.013-0.016,0.019-0.023c0.034-0.049,0.067-0.101,0.097-0.154
		c0.007-0.011,0.012-0.023,0.018-0.035c0.028-0.057,0.054-0.115,0.075-0.178l0.071-0.218c0.017-0.052,0.036-0.104,0.06-0.153
		c0.003-0.008,0.008-0.015,0.011-0.022c0.02-0.042,0.041-0.084,0.063-0.124c0-0.002,0.002-0.004,0.003-0.005
		c0.291-0.507,0.837-0.817,1.415-0.813c0.005,0,0.01,0,0.015,0c0.041,0.001,0.083,0.004,0.125,0.008
		c0.013,0.001,0.023,0.001,0.035,0.002c0.037,0.004,0.074,0.011,0.11,0.019c0.016,0.003,0.033,0.005,0.051,0.009
		c0.053,0.012,0.104,0.026,0.156,0.042l2.417,0.792c0.149,0.049,0.3,0.09,0.45,0.13c0.025,0.007,0.051,0.014,0.075,0.02
		c0.149,0.037,0.299,0.07,0.449,0.099c0.019,0.003,0.037,0.006,0.056,0.009c0.315,0.057,0.633,0.094,0.951,0.111
		c0.018,0.001,0.036,0.001,0.054,0.003c0.132,0.006,0.264,0.01,0.396,0.009C67.231,29.352,67.158,29.669,67.055,29.982z
		 M72.026,22.917c-0.552,1.686-1.972,2.973-3.709,3.359c-0.876,0.195-1.793,0.149-2.652-0.132l-2.417-0.791
		c-0.109-0.036-0.218-0.065-0.327-0.092c-0.015-0.003-0.026-0.006-0.04-0.01c-0.109-0.025-0.218-0.046-0.327-0.062
		c-0.009-0.001-0.018-0.002-0.025-0.004c-0.86-0.125-1.737,0.016-2.529,0.418c-0.044,0.021-0.085,0.046-0.127,0.069
		c-0.01,0.005-0.018,0.009-0.026,0.015c-0.401,0.223-0.757,0.506-1.06,0.836c-0.005,0.004-0.009,0.008-0.013,0.013
		c-0.074,0.081-0.145,0.165-0.212,0.251c-0.003,0.004-0.006,0.007-0.009,0.011c-0.07,0.092-0.138,0.185-0.202,0.282l-1.607-0.525
		l-0.005-0.002l1.545-4.726c0.699-2.14,3.01-3.312,5.152-2.614l4.993,1.633c0.496,0.162,1.027,0.193,1.537,0.09l2.897-0.583
		L72.026,22.917z"/>
	<path fill="#765E10" d="M18.283,84.354H5.183c-0.728,0-1.318,0.59-1.318,1.318s0.59,1.318,1.318,1.318h13.101
		c0.729,0,1.319-0.59,1.319-1.318S19.012,84.354,18.283,84.354z"/>
	<path fill="#765E10" d="M18.283,76.785H9.078c-0.729,0-1.319,0.59-1.319,1.319c0,0.728,0.59,1.318,1.319,1.318h9.206
		c0.729,0,1.319-0.591,1.319-1.318C19.602,77.375,19.012,76.785,18.283,76.785z"/>
	<path fill="#765E10" d="M18.283,69.218h-3.896c-0.728,0-1.318,0.59-1.318,1.318s0.59,1.318,1.318,1.318h3.896
		c0.729,0,1.319-0.59,1.319-1.318S19.012,69.218,18.283,69.218z"/>
</g>
</svg>
